<svg id="outline1" xmlns="http://www.w3.org/2000/svg" viewBox="0 0 600.24 232.56">
  <defs>
    <style>
      .cls-1 {
        fill: none;
        stroke: #3c2415;
        stroke-miterlimit: 10;
        stroke-width: 3px;
      }
    </style>
  </defs>
  <title>skyline_000</title>
  <polyline class="cls-1" points="0.24 169.73 18.58 172.73 31.58 177.4 52.91 180.06 52.91 185.06 64.24 186.73 61.24 91.06 60.58 78.4 59.99 74.75 63.24 76.56 69.74 67.06 69.74 60.81 72.74 60.81 72.74 55.31 75.49 55.31 79.49 50.31 90.24 44.81 98.74 46.06 108.99 47.56 117.99 55.81 121.49 58.06 123.49 59.81 125.24 62.06 125.24 74.56 127.74 75.06 127.74 77.56 129.99 81.81 133.99 81.06 131.49 84.81 130.24 107.81 127.24 145.81 126.49 164.81 126.24 186.73 126.24 199.06 133.99 199.06 137.24 208.56 184.99 210.31 184.99 207.81 184.99 204.31 186.49 203.31 186.99 97.4 188.83 96.15 188.41 84.15 190.66 83.81 190.66 55.73 192.91 55.73 192.91 34.73 210.24 1.73 218.58 3.73 235.58 39.06 238.91 89.4 257.91 98.4 257.91 106.02 270.91 111.73 272.24 119.56 283.24 125.06 283.24 160.73 295.24 163.06 295.24 112.73 314.58 101.06 341.91 113.06 346.58 124.4 348.24 136.4 357.58 142.4 357.58 149.06 361.24 151.06 361.24 162.4 365.58 164.4 365.58 190.4 371.24 189.4 371.24 185.4 382.24 186.06 382.24 170.73 405.24 170.4 411.24 173.4 411.24 225.73 478.91 225.73 478.91 164.73 489.58 164.06 489.58 155.06 495.91 137.73 506.24 162.73 517.91 164.06 519.58 222.4 537.91 220.06 535.58 155.06 567.24 153.4 567.24 146.06 579.24 148.4 579.24 231.06 600.24 231.06"/>
</svg>
