<?xml version="1.0" standalone="no"?>
<!DOCTYPE svg PUBLIC "-//W3C//DTD SVG 20010904//EN"
 "http://www.w3.org/TR/2001/REC-SVG-20010904/DTD/svg10.dtd">
<svg version="1.0" xmlns="http://www.w3.org/2000/svg"
 width="260.000000pt" height="260.000000pt" viewBox="0 0 260.000000 260.000000"
 preserveAspectRatio="xMidYMid meet">
<metadata>
Created by potrace 1.11, written by Peter Selinger 2001-2013
</metadata>
<g transform="translate(0.000000,260.000000) scale(0.100000,-0.100000)"
fill="#000000" stroke="none">
<path d="M1124 1633 c57 -196 70 -295 70 -543 0 -374 -69 -710 -197 -966 l-46
-91 52 -7 c67 -8 178 -8 246 1 64 7 71 17 132 173 91 231 139 492 146 795 5
208 -6 347 -42 502 l-17 73 -77 24 c-72 23 -225 56 -258 56 -9 0 -12 -7 -9
-17z"/>
<path d="M660 1611 c-84 -24 -140 -46 -140 -55 0 -1 7 -47 15 -102 20 -132 20
-442 0 -604 -25 -195 -66 -369 -128 -532 l-26 -67 72 -45 c40 -25 101 -57 136
-72 74 -32 63 -42 127 106 115 265 170 589 161 945 -5 195 -11 248 -43 388
-16 65 -17 67 -48 66 -17 0 -74 -13 -126 -28z"/>
<path d="M1837 1250 c12 -140 9 -410 -6 -530 -17 -143 -56 -324 -96 -447 -18
-57 -31 -103 -28 -103 2 0 31 19 65 41 123 84 226 209 279 339 l26 65 251 40
c139 22 252 42 252 45 0 3 -111 50 -246 105 -136 54 -247 104 -249 110 -34
141 -100 266 -194 365 l-61 65 7 -95z"/>
<path d="M253 1195 c-32 -32 -35 -39 -30 -78 11 -84 99 -116 158 -58 46 47 35
127 -22 157 -43 22 -68 17 -106 -21z"/>
</g>
</svg>
